<svg width="119" height="119" viewBox="0 0 119 119" fill="none" xmlns="http://www.w3.org/2000/svg">
<g clip-path="url(#clip0_0_249)">
<path d="M5.03772 85.919C5.03772 87.1024 5.45318 88.1096 6.28408 88.9405C7.11499 89.7966 8.12216 90.2247 9.30557 90.2247H109.694C110.878 90.2247 111.885 89.7966 112.716 88.9405C113.547 88.1096 113.962 87.1024 113.962 85.919C113.962 84.7357 113.547 83.7285 112.716 82.8976C111.885 82.0415 110.878 81.6134 109.694 81.6134H101.423V36.7821C101.423 34.1384 100.731 32.1493 99.3458 30.8147C97.9861 29.4551 95.9843 28.7752 93.3406 28.7752H25.6593C23.1666 28.7752 21.19 29.4551 19.7297 30.8147C18.2944 32.1493 17.5769 34.1384 17.5769 36.7821V81.6134H9.30557C8.12216 81.6134 7.11499 82.0415 6.28408 82.8976C5.45318 83.7285 5.03772 84.7357 5.03772 85.919ZM23.6576 81.6134V38.4817C23.6576 37.2731 23.9597 36.3666 24.5641 35.7624C25.1683 35.158 26.0748 34.8559 27.2834 34.8559H91.7165C92.9251 34.8559 93.8316 35.158 94.4358 35.7624C95.0402 36.3666 95.3423 37.2731 95.3423 38.4817V81.6134H23.6576Z" fill="black"/>
</g>
<defs>
<clipPath id="clip0_0_249">
<rect width="118.639" height="118.639" fill="white" transform="scale(1.00304)"/>
</clipPath>
</defs>
</svg>
