<svg width="119" height="119" viewBox="0 0 119 119" fill="none" xmlns="http://www.w3.org/2000/svg">
<g clip-path="url(#clip0_0_294)">
<path d="M19.0992 89.067C20.8617 91.4339 23.0146 93.3474 25.5576 94.8078C28.1259 96.2934 30.8577 97.288 33.7534 97.7915C36.649 98.2952 39.5068 98.2574 42.3268 97.6783C45.1469 97.1243 47.7026 96.0038 49.9938 94.3168C52.6124 92.378 54.5134 90.1371 55.6969 87.5941C56.9055 85.0762 57.3461 82.4576 57.0188 79.7381C56.7167 76.9937 55.6088 74.3498 53.6952 71.8068C51.9075 69.3896 49.8806 67.6019 47.6144 66.4436C45.3483 65.2603 43.0319 64.7441 40.6649 64.8951C38.3233 65.0462 36.1075 65.9149 34.0178 67.5012C32.5573 68.6091 31.4999 69.805 30.8452 71.0892C30.2157 72.3481 29.7625 73.6071 29.4855 74.866C29.2085 76.0999 28.919 77.2329 28.6168 78.2652C28.3147 79.2975 27.7482 80.1158 26.9173 80.7202C25.9604 81.4251 25.0288 81.8532 24.1224 82.0043C23.216 82.1553 22.3599 82.2687 21.5541 82.3442C20.7484 82.4198 19.993 82.7219 19.2881 83.2507C18.5326 83.8549 18.0795 84.6732 17.9283 85.7055C17.8025 86.738 18.1927 87.8584 19.0992 89.067ZM26.804 88.4628C26.5521 88.2109 26.4263 87.9591 26.4263 87.7074C26.4263 87.4556 26.5143 87.2415 26.6906 87.0653C26.8669 86.9141 27.1816 86.7631 27.6349 86.612C28.1133 86.4862 28.6546 86.2973 29.2589 86.0456C29.8632 85.7686 30.4298 85.3532 30.9586 84.7992C31.8902 83.8927 32.5573 82.9107 32.9603 81.8532C33.3882 80.7705 33.7534 79.6752 34.0555 78.5673C34.3576 77.4594 34.7605 76.3893 35.2641 75.357C35.7676 74.2995 36.5483 73.3679 37.6058 72.5621C38.7892 71.6305 40.0734 71.1143 41.4582 71.0136C42.8429 70.9129 44.2153 71.2024 45.5749 71.8823C46.9346 72.5621 48.1683 73.6071 49.2762 75.0171C50.51 76.6285 51.2024 78.3155 51.3535 80.078C51.5298 81.8154 51.2024 83.515 50.3715 85.1769C49.5406 86.8134 48.2817 88.2865 46.5947 89.5958C45.1594 90.7288 43.5732 91.5597 41.8359 92.0885C40.1236 92.6425 38.3611 92.8817 36.5483 92.8061C34.7353 92.7306 32.9854 92.3402 31.2984 91.6353C29.6115 90.9302 28.1133 89.8728 26.804 88.4628ZM56.0368 80.078C58.0763 79.8515 60.0025 79.222 61.8154 78.1896C63.6282 77.1573 65.4916 75.6718 67.4052 73.7329C69.4195 71.7187 71.5722 69.3644 73.8636 66.6703C76.1549 63.9761 78.4588 61.1435 80.7753 58.1723C83.1169 55.1761 85.3453 52.2301 87.4602 49.3345C89.6005 46.4389 91.5393 43.7826 93.2767 41.3654C95.0141 38.9229 96.4365 36.896 97.5444 35.2846C98.6775 33.6731 99.3826 32.6785 99.6595 32.3008C100.616 30.9915 101.095 29.6571 101.095 28.2974C101.095 26.9377 100.755 25.7039 100.075 24.596C99.3952 23.463 98.4887 22.5565 97.3557 21.8767C96.2478 21.1969 95.0141 20.8569 93.6543 20.8569C92.2946 20.8569 90.9475 21.3228 89.6131 22.2544C89.2354 22.5314 88.2409 23.2238 86.6293 24.3317C85.0179 25.4396 82.991 26.8622 80.5486 28.5995C78.1314 30.3369 75.475 32.2757 72.5794 34.4159C69.6839 36.531 66.7379 38.7593 63.7416 41.1009C60.7704 43.4174 57.9378 45.7212 55.2436 48.0126C52.5495 50.3039 50.1952 52.4693 48.181 54.5088C46.2926 56.4224 44.8195 58.273 43.7621 60.0607C42.7297 61.8484 42.0876 63.7369 41.8359 65.726L47.7655 67.3501C47.8158 65.9652 48.2188 64.5804 48.9741 63.1955C49.7295 61.8106 50.8876 60.3503 52.4488 58.8144C54.4632 56.8253 56.7921 54.7228 59.436 52.5071C62.0798 50.2661 64.8621 48.0126 67.7828 45.7465C70.7037 43.4803 73.5615 41.3149 76.3563 39.2503C79.1763 37.1604 81.7572 35.2846 84.0989 33.6228C86.4405 31.9358 88.3541 30.5634 89.8396 29.506C91.3505 28.4485 92.2443 27.819 92.5213 27.6176C92.9493 27.2902 93.3522 27.2021 93.7299 27.3531C94.1327 27.4791 94.397 27.7434 94.523 28.1463C94.674 28.5492 94.586 28.9772 94.2586 29.4304C94.1076 29.6822 93.5032 30.5634 92.4457 32.0743C91.4134 33.5599 90.0537 35.4734 88.3667 37.815C86.7049 40.1568 84.8291 42.7376 82.7392 45.5576C80.6494 48.3776 78.4588 51.248 76.1674 54.1689C73.9014 57.0896 71.6478 59.8845 69.4069 62.5535C67.166 65.1972 65.0635 67.5012 63.0996 69.4652C61.5636 71.001 60.1536 72.1215 58.8694 72.8265C57.6106 73.5315 56.3264 73.9596 55.0171 74.1106L56.0368 80.078ZM62.7219 70.5982L67.5563 69.3518C67.4303 67.5641 66.9268 65.8142 66.0454 64.102C65.1894 62.3646 64.069 60.7909 62.6841 59.3809C61.2993 57.9709 59.7633 56.8253 58.0763 55.9439C56.3893 55.0376 54.6519 54.5088 52.8642 54.3576L51.2402 59.192C52.4488 59.1669 53.7203 59.5068 55.0549 60.2119C56.3893 60.9168 57.6357 61.8484 58.7939 63.0067C59.9522 64.1649 60.8964 65.4239 61.6265 66.7835C62.3567 68.1181 62.7219 69.3896 62.7219 70.5982Z" fill="black"/>
</g>
<defs>
<clipPath id="clip0_0_294">
<rect width="118.639" height="118.639" fill="white" transform="scale(1.00304)"/>
</clipPath>
</defs>
</svg>
