<svg width="278" height="61" viewBox="0 0 278 61" fill="none" xmlns="http://www.w3.org/2000/svg">
<path d="M272.257 47.9504V12.9355H278V47.9504H272.257Z" fill="#151515"/>
<path d="M237.423 35.1535V12.9355H243.166V35.2543C243.166 40.6955 246.239 43.2649 251.076 43.2649C255.963 43.2649 259.036 40.6955 259.036 35.2543V12.9355H264.78V35.1535C264.78 44.071 258.331 48.303 251.025 48.303C243.67 48.303 237.423 44.071 237.423 35.1535Z" fill="#151515"/>
<path d="M223.88 33.3402V47.9507H218.137V20.1907H223.88V24.2212C225.493 21.4502 228.264 19.7373 232.193 19.7373V25.6822H230.732C226.5 25.6822 223.88 27.4456 223.88 33.3402Z" fill="#151515"/>
<path d="M198.729 24.5739C194.85 24.5739 191.726 27.1937 191.122 31.5768H206.488C206.387 27.2944 203.012 24.5739 198.729 24.5739ZM211.727 39.6882C210.166 44.5248 205.782 48.4041 198.981 48.4041C191.021 48.4041 185.126 42.7614 185.126 34.0455C185.126 25.3296 190.769 19.7373 198.981 19.7373C206.891 19.7373 212.483 25.2288 212.483 33.3906C212.483 34.3478 212.433 35.2547 212.282 36.2119H191.071C191.474 40.7966 194.749 43.5675 198.981 43.5675C202.508 43.5675 204.473 41.8546 205.531 39.6882H211.727Z" fill="#151515"/>
<path d="M169.203 40.2423V24.876H165.928V20.1906H169.203V13.2884H174.996V20.1906H181.747V24.876H174.996V40.2423C174.996 42.3079 175.802 43.1644 178.221 43.1644H181.747V47.9506H177.213C172.276 47.9506 169.203 45.885 169.203 40.2423Z" fill="#151515"/>
<path d="M162.089 40.192C162.089 44.8775 158.008 48.4041 151.459 48.4041C144.808 48.4041 140.123 44.4744 139.871 39.4363H145.816C146.018 41.7034 148.184 43.5675 151.358 43.5675C154.683 43.5675 156.446 42.1569 156.446 40.2424C156.446 34.8012 140.325 37.9249 140.325 27.7479C140.325 23.3143 144.456 19.7373 151.005 19.7373C157.303 19.7373 161.434 23.1128 161.736 28.6547H155.993C155.792 26.2364 153.927 24.5739 150.804 24.5739C147.731 24.5739 146.118 25.8334 146.118 27.6975C146.118 33.2898 161.787 30.1662 162.089 40.192Z" fill="#151515"/>
<path d="M105.324 33.9447C105.324 25.38 111.118 19.7373 118.423 19.7373C123.109 19.7373 126.333 21.954 128.046 24.2212V20.1907H133.84V47.9507H128.046V43.8194C126.283 46.1874 122.958 48.4041 118.322 48.4041C111.118 48.4041 105.324 42.5095 105.324 33.9447ZM128.046 34.0455C128.046 28.1005 123.965 24.725 119.632 24.725C115.35 24.725 111.219 27.9494 111.219 33.9447C111.219 39.9401 115.35 43.4164 119.632 43.4164C123.965 43.4164 128.046 40.0409 128.046 34.0455Z" fill="#151515"/>
<path d="M81.3089 47.9504V12.9355H101.915V17.6209H87.0523V27.949H98.64V32.6345H87.0523V47.9504H81.3089Z" fill="#151515"/>
<path d="M45.7369 0C54.1568 0 60.9821 6.82553 60.9822 15.2453V45.7369C60.9822 54.1569 54.1569 60.9822 45.7369 60.9822H15.2453C6.82553 60.9821 0 54.1568 0 45.7369V15.2453C0.000173811 6.82564 6.82564 0.000177729 15.2453 0H45.7369ZM32.1695 13.7622C32.0174 13.7093 31.8516 13.7075 31.6987 13.7583C31.5457 13.8091 31.4148 13.9094 31.3267 14.0422L19.9257 33.635C19.8592 33.7413 19.8227 33.8629 19.82 33.9875C19.8173 34.1123 19.8489 34.2358 19.911 34.3448C19.9731 34.4537 20.0636 34.545 20.1734 34.6081C20.2831 34.6712 20.4084 34.7041 20.5356 34.7041H29.7701L28.5239 46.5015C28.5117 46.6586 28.5534 46.8157 28.6424 46.9469C28.7313 47.0781 28.8629 47.1763 29.0153 47.2259C29.1677 47.2755 29.333 47.2739 29.4843 47.221C29.6355 47.1681 29.7644 47.0662 29.8504 46.9332L41.0624 27.3433C41.1274 27.2368 41.1617 27.115 41.1632 26.9909C41.1647 26.8667 41.1326 26.7445 41.0702 26.6365C41.0079 26.5286 40.918 26.4385 40.8088 26.3761C40.6995 26.3135 40.5742 26.2801 40.4476 26.2801H31.0731L32.6453 14.5013C32.6622 14.3438 32.6246 14.185 32.5386 14.051C32.4524 13.9169 32.3219 13.8152 32.1695 13.7622Z" fill="#151515"/>
</svg>
