<svg width="36" height="36" viewBox="0 0 36 36" fill="none" xmlns="http://www.w3.org/2000/svg">
<rect width="35.5918" height="35.5918" transform="scale(1.01147)" fill="#F5F8FF"/>
<path fill-rule="evenodd" clip-rule="evenodd" d="M14.0158 26.8897C15.3458 26.9706 16.6742 27.0024 18 26.9994C19.3257 27.0024 20.6543 26.9706 21.9843 26.8897C23.1044 26.8216 24.167 26.4507 25.0529 25.7281C25.9062 25.0323 26.4416 24.1002 26.708 23.056C26.9543 22.0915 26.9675 21.1219 26.9795 20.2461L26.9798 20.2288C26.9898 19.4881 26.9982 18.745 27 18.0012V17.9995V17.9979C26.9982 17.254 26.9898 16.5109 26.9798 15.7702L26.9795 15.753C26.9675 14.8771 26.9541 13.9076 26.708 12.9429C26.4416 11.8988 25.9062 10.9668 25.0529 10.2709C24.167 9.54841 23.1044 9.17746 21.9843 9.10936C20.6543 9.02848 19.3257 8.99661 18 8.99971C16.6742 8.99661 15.3458 9.02848 14.0158 9.10936C12.8957 9.17746 11.8331 9.54841 10.9471 10.2709C10.0937 10.9668 9.55839 11.8988 9.29195 12.9429C9.04575 13.9077 9.03251 14.8774 9.02055 15.7533L9.02032 15.7702C9.01018 16.5109 9.00174 17.254 9 17.9979V17.9995V18.0012C9.00174 18.745 9.01018 19.4881 9.02032 20.2288L9.02055 20.2458C9.03251 21.1216 9.04575 22.0914 9.29195 23.0562C9.55839 24.1002 10.0937 25.0323 10.9471 25.7281C11.8331 26.4507 12.8957 26.8216 14.0158 26.8897ZM17.9984 25.5931C16.6965 25.5961 15.3975 25.5649 14.1011 25.486C13.2406 25.4337 12.4681 25.1539 11.8358 24.6384C11.2484 24.1593 10.8577 23.5044 10.6546 22.7085C10.4546 21.9247 10.4389 21.1146 10.4265 20.2096C10.4164 19.4712 10.408 18.7348 10.4063 17.9995C10.408 17.2642 10.4164 16.5279 10.4265 15.7894C10.4389 14.8844 10.4546 14.0743 10.6546 13.2906C10.8577 12.4946 11.2484 11.8397 11.8358 11.3607C12.4681 10.8452 13.2406 10.5654 14.1011 10.513C15.3975 10.4342 16.6965 10.4029 17.9984 10.406H18H18.0017C19.3034 10.4029 20.6025 10.4342 21.8988 10.513C22.7595 10.5654 23.5319 10.8451 24.1641 11.3607C24.7515 11.8397 25.1423 12.4946 25.3454 13.2906C25.5453 14.0743 25.5611 14.8844 25.5735 15.7894C25.5836 16.5279 25.592 17.2641 25.5938 17.9995C25.592 18.735 25.5836 19.4712 25.5735 20.2096C25.5611 21.1146 25.5453 21.9247 25.3454 22.7085C25.1423 23.5044 24.7515 24.1593 24.1641 24.6384C23.5319 25.1539 22.7595 25.4337 21.8988 25.486C20.6025 25.5649 19.3034 25.5961 18.0017 25.5931H18H17.9984Z" fill="#151515"/>
<path fill-rule="evenodd" clip-rule="evenodd" d="M13.6288 18.0001C13.6288 20.4144 15.586 22.3716 18.0002 22.3716C20.4145 22.3716 22.3717 20.4144 22.3717 18.0001C22.3717 15.5859 20.4145 13.6287 18.0002 13.6287C15.586 13.6287 13.6288 15.5859 13.6288 18.0001ZM18.0002 20.9727C16.3585 20.9727 15.0277 19.6419 15.0277 18.0001C15.0277 16.3584 16.3585 15.0276 18.0002 15.0276C19.642 15.0276 20.9728 16.3584 20.9728 18.0001C20.9728 19.6419 19.642 20.9727 18.0002 20.9727Z" fill="#151515"/>
<path d="M23.9154 13.1138C23.9154 13.6819 23.4549 14.1424 22.8869 14.1424C22.3188 14.1424 21.8583 13.6819 21.8583 13.1138C21.8583 12.5458 22.3188 12.0853 22.8869 12.0853C23.4549 12.0853 23.9154 12.5458 23.9154 13.1138Z" fill="#151515"/>
</svg>
