<svg width="119" height="119" viewBox="0 0 119 119" fill="none" xmlns="http://www.w3.org/2000/svg">
<g clip-path="url(#clip0_0_286)">
<path d="M19.012 37.4622V42.7875H99.988V37.4622H19.012ZM26.8302 94.2661H92.1698C96.1481 94.2661 99.1193 93.2841 101.083 91.3201C103.047 89.3813 104.029 86.4731 104.029 82.5956V36.4424C104.029 32.5649 103.047 29.6441 101.083 27.6801C99.1193 25.7162 96.1481 24.7341 92.1698 24.7341H26.8302C22.8772 24.7341 19.906 25.7162 17.9168 27.6801C15.9529 29.6189 14.971 32.5396 14.971 36.4424V82.5956C14.971 86.4731 15.9529 89.3813 17.9168 91.3201C19.906 93.2841 22.8772 94.2661 26.8302 94.2661ZM26.9058 88.1854C25.0174 88.1854 23.5696 87.6943 22.5624 86.7123C21.5552 85.7052 21.0516 84.2197 21.0516 82.2557V36.7823C21.0516 34.8183 21.5552 33.3328 22.5624 32.3256C23.5696 31.3185 25.0174 30.8149 26.9058 30.8149H92.0943C93.9575 30.8149 95.3928 31.3185 96.3998 32.3256C97.4323 33.3328 97.9485 34.8183 97.9485 36.7823V82.2557C97.9485 84.2197 97.4323 85.7052 96.3998 86.7123C95.3928 87.6943 93.9575 88.1854 92.0943 88.1854H26.9058ZM59.5378 80.1029C60.3436 80.1029 61.0485 79.8133 61.6529 79.2342C62.2571 78.6551 62.5592 77.9627 62.5592 77.1569V64.6933L62.2949 58.3482L65.543 61.7473L70.4529 66.6572C70.755 66.9593 71.0824 67.186 71.4348 67.3372C71.7873 67.4881 72.1399 67.5637 72.4924 67.5637C73.2981 67.5637 73.9653 67.3119 74.4942 66.8083C75.0228 66.3047 75.2873 65.6627 75.2873 64.8822C75.2873 64.4541 75.1991 64.0764 75.0228 63.749C74.8718 63.3966 74.6326 63.0819 74.3052 62.8049L61.7283 51.0966C60.9729 50.4168 60.2427 50.0768 59.5378 50.0768C58.8327 50.0768 58.1025 50.4168 57.3471 51.0966L44.7703 62.8049C44.4681 63.0819 44.2289 63.3966 44.0526 63.749C43.8764 64.0764 43.7883 64.4541 43.7883 64.8822C43.7883 65.6627 44.0401 66.3047 44.5436 66.8083C45.0724 67.3119 45.7396 67.5637 46.5454 67.5637C47.326 67.5637 48.0183 67.2616 48.6227 66.6572L53.5326 61.7473L56.7807 58.3482L56.554 64.6933V77.1569C56.554 77.9627 56.8436 78.6551 57.4227 79.2342C58.0271 79.8133 58.732 80.1029 59.5378 80.1029Z" fill="black"/>
</g>
<defs>
<clipPath id="clip0_0_286">
<rect width="118.639" height="118.639" fill="white" transform="scale(1.00304)"/>
</clipPath>
</defs>
</svg>
