<svg width="36" height="36" viewBox="0 0 36 36" fill="none" xmlns="http://www.w3.org/2000/svg">
<rect width="35.5918" height="35.5918" transform="scale(1.01147)" fill="#F5F8FF"/>
<path d="M25.7987 25.7994V20.1957C25.7987 17.4417 25.2059 15.338 21.9929 15.338C20.4437 15.338 19.4109 16.1795 18.9902 16.9827H18.9519V15.5867H15.9111V25.7994H19.0859V20.7312C19.0859 19.3925 19.3344 18.1112 20.9792 18.1112C22.6049 18.1112 22.6239 19.622 22.6239 20.8077V25.7802H25.7987V25.7994Z" fill="#151515"/>
<path d="M10.749 15.5869H13.9237V25.7997H10.749V15.5869Z" fill="#151515"/>
<path d="M12.336 10.4994C11.3224 10.4994 10.5 11.3218 10.5 12.3354C10.5 13.3491 11.3224 14.1906 12.336 14.1906C13.3497 14.1906 14.172 13.3491 14.172 12.3354C14.172 11.3218 13.3497 10.4994 12.336 10.4994Z" fill="#151515"/>
</svg>
