<svg width="119" height="119" viewBox="0 0 119 119" fill="none" xmlns="http://www.w3.org/2000/svg">
<g clip-path="url(#clip0_0_278)">
<path d="M61.7303 37.3677C60.8994 37.3677 60.1818 37.6573 59.5775 38.2364C58.9984 38.8154 58.7088 39.5205 58.7088 40.3514V61.4262C58.7088 61.8794 58.7843 62.3075 58.9355 62.7103C59.0866 63.088 59.3131 63.4783 59.6153 63.8812L68.9441 76.1938C69.5736 76.9994 70.2912 77.4778 71.097 77.6289C71.9279 77.7548 72.721 77.5534 73.4764 77.0246C74.1813 76.5462 74.559 75.9042 74.6094 75.0984C74.685 74.2675 74.4331 73.4743 73.854 72.719L61.2771 55.7609L64.7141 66.3361V40.3514C64.7141 39.5205 64.4245 38.8154 63.8454 38.2364C63.2662 37.6573 62.5612 37.3677 61.7303 37.3677ZM63.1655 98.0239C68.4279 98.0239 73.3757 97.0168 78.0086 95.0025C82.6667 92.9881 86.7709 90.2059 90.3211 86.6557C93.8713 83.1053 96.6537 79.0138 98.6679 74.3808C100.682 69.7227 101.689 64.7625 101.689 59.5C101.689 54.2375 100.682 49.29 98.6679 44.657C96.6537 39.9989 93.8713 35.8947 90.3211 32.3444C86.7709 28.7942 82.6667 26.0119 78.0086 23.9976C73.3757 21.9832 68.4279 20.9761 63.1655 20.9761C57.9031 20.9761 52.9428 21.9832 48.2847 23.9976C43.6517 26.0119 39.5602 28.7942 36.01 32.3444C32.4598 35.8694 29.6774 39.9611 27.6632 44.6192C25.6488 49.2522 24.6416 54.1998 24.6416 59.4622H31.0622C31.0622 55.0055 31.8805 50.8385 33.5172 46.9608C35.1791 43.0832 37.4829 39.6841 40.4289 36.7633C43.3749 33.8426 46.7866 31.5639 50.6641 29.9272C54.5417 28.2655 58.7088 27.4346 63.1655 27.4346C67.6222 27.4346 71.7894 28.2655 75.6669 29.9272C79.5445 31.5639 82.9437 33.8552 85.8644 36.8011C88.8104 39.7219 91.1143 43.121 92.7761 46.9986C94.4379 50.8762 95.2688 55.0433 95.2688 59.5C95.2688 63.9567 94.4379 68.1364 92.7761 72.0392C91.1143 75.9168 88.8104 79.3285 85.8644 82.2744C82.9437 85.1952 79.5445 87.4866 75.6669 89.1483C71.7894 90.8101 67.6222 91.6285 63.1655 91.6032C59.565 91.5781 56.1531 91.0115 52.9303 89.9038C49.7073 88.821 46.7488 87.285 44.0547 85.2959C41.3856 83.3069 39.0943 80.9777 37.1808 78.3087C36.6017 77.5282 35.8966 77.0372 35.0657 76.8358C34.2599 76.6092 33.4543 76.7351 32.6485 77.2135C31.8932 77.6918 31.4273 78.3843 31.2512 79.2908C31.1 80.1972 31.3519 81.0658 32.0065 81.8967C34.3984 85.0945 37.2059 87.902 40.4289 90.3192C43.6517 92.7616 47.1894 94.6499 51.0417 95.9844C54.8942 97.3441 58.9355 98.0239 63.1655 98.0239ZM19.9961 52.2107C19.0897 52.2107 18.4097 52.3996 17.9566 52.7773C17.5034 53.1296 17.2893 53.6082 17.3145 54.2124C17.3396 54.8168 17.5914 55.4714 18.0698 56.1763L26.53 68.1867C27.1595 69.0681 27.8771 69.5087 28.6828 69.5087C29.4886 69.4835 30.1935 69.0429 30.7979 68.1867L39.2581 56.1386C39.7365 55.4336 39.9756 54.7915 39.9756 54.2124C40.0008 53.6082 39.7867 53.1296 39.3336 52.7773C38.8804 52.3996 38.2131 52.2107 37.3319 52.2107H19.9961Z" fill="black"/>
</g>
<defs>
<clipPath id="clip0_0_278">
<rect width="118.639" height="118.639" fill="white" transform="scale(1.00304)"/>
</clipPath>
</defs>
</svg>
