<svg width="44" height="33" viewBox="0 0 44 33" fill="none" xmlns="http://www.w3.org/2000/svg">
<path d="M9.08001 21.2143L19.6595 33H13.2451L4.74826 22.8429V33H0V1.28572H4.74826V19.7143L13.0785 9.38572H19.6595L9.08001 21.2143Z" fill="black"/>
<path d="M24.6456 6.25714C23.7848 6.25714 23.0628 5.95714 22.4797 5.35714C21.8966 4.75714 21.605 4.01429 21.605 3.12857C21.605 2.24286 21.8966 1.5 22.4797 0.900001C23.0628 0.3 23.7848 0 24.6456 0C25.4786 0 26.1867 0.3 26.7698 0.900001C27.3529 1.5 27.6445 2.24286 27.6445 3.12857C27.6445 4.01429 27.3529 4.75714 26.7698 5.35714C26.1867 5.95714 25.4786 6.25714 24.6456 6.25714ZM26.9781 9.38572V33H22.2298V9.38572H26.9781Z" fill="black"/>
<path d="M37.9187 13.3714V26.4429C37.9187 27.3286 38.1131 27.9714 38.5018 28.3714C38.9184 28.7429 39.6125 28.9286 40.5844 28.9286H43.5V33H39.7514C37.6133 33 35.975 32.4857 34.8365 31.4571C33.698 30.4286 33.1288 28.7571 33.1288 26.4429V13.3714H30.4215V9.38572H33.1288V3.51429H37.9187V9.38572H43.5V13.3714H37.9187Z" fill="black"/>
</svg>
