<svg width="18" height="18" viewBox="0 0 18 18" fill="none" xmlns="http://www.w3.org/2000/svg">
<path d="M9.00001 18C4.03595 18 0 13.9664 0 9.00346C0 4.03364 4.03595 0 9.00001 0C13.9641 0 18 4.03364 18 8.99656C18 13.9593 13.9641 18 9.00001 18ZM16.5867 10.2284C16.3266 10.1439 14.2101 9.51736 11.7984 9.89761C12.8039 12.657 13.2117 14.9097 13.2891 15.3743C15.0188 14.2128 16.2492 12.3684 16.5867 10.2284ZM12.0024 16.0853C11.8899 15.4095 11.4399 13.0583 10.3641 10.2566C10.35 10.2636 10.3289 10.2707 10.3149 10.2707C5.97656 11.7842 4.42266 14.79 4.28204 15.0716C5.58283 16.0853 7.22116 16.6907 9.00001 16.6907C10.0617 16.6977 11.0813 16.4795 12.0024 16.0853ZM3.29063 14.1494C3.46641 13.8537 5.57579 10.3622 9.54136 9.07396C9.63991 9.03871 9.74536 9.01051 9.84376 8.98246C9.65386 8.54596 9.44296 8.10946 9.21796 7.68016C5.37892 8.82751 1.65234 8.77831 1.31484 8.77126C1.31484 8.84866 1.30782 8.92606 1.30782 9.00346C1.31484 10.9817 2.06016 12.7838 3.29063 14.1494ZM1.47657 7.43371C1.82109 7.44076 4.98517 7.45486 8.58511 6.49741C7.31251 4.23074 5.93438 2.33007 5.73751 2.05554C3.57891 3.06923 1.97579 5.05436 1.47657 7.43371ZM7.20001 1.53461C7.41091 1.81619 8.81011 3.71685 10.0688 6.03286C12.8039 5.00509 13.9571 3.45639 14.0976 3.25929C12.7407 2.05554 10.9547 1.32342 9.00001 1.32342C8.38126 1.32342 7.77661 1.40087 7.20001 1.53461ZM14.9484 4.14627C14.7867 4.3645 13.5 6.01876 10.6595 7.18036C10.8351 7.54636 11.0109 7.91941 11.1726 8.29261C11.2289 8.42626 11.2851 8.56006 11.3414 8.68681C13.9008 8.36296 16.4391 8.88391 16.6922 8.93311C16.6712 7.12396 16.0242 5.45561 14.9484 4.14627Z" fill="#151515"/>
</svg>
