<svg width="119" height="119" viewBox="0 0 119 119" fill="none" xmlns="http://www.w3.org/2000/svg">
<g clip-path="url(#clip0_0_241)">
<path d="M59.4825 16.916C58.8783 16.916 58.3495 17.1425 57.8962 17.5958C57.4681 18.0239 57.2542 18.5525 57.2542 19.1821V33.1942C57.2542 33.8488 57.4681 34.3903 57.8962 34.8182C58.3495 35.2463 58.8783 35.4604 59.4825 35.4604C60.1372 35.4604 60.6785 35.2463 61.1066 34.8182C61.5347 34.3903 61.7486 33.8488 61.7486 33.1942V19.1821C61.7486 18.5525 61.5347 18.0239 61.1066 17.5958C60.6785 17.1425 60.1372 16.916 59.4825 16.916ZM70.662 18.049C70.0577 17.8476 69.4912 17.8854 68.9625 18.1624C68.4337 18.4393 68.0812 18.9302 67.9049 19.6353L66.6207 24.2808C66.4445 24.8851 66.5075 25.4642 66.8096 26.0182C67.1118 26.547 67.565 26.8869 68.1692 27.038C68.7736 27.189 69.3402 27.126 69.8688 26.8491C70.4228 26.547 70.7753 26.0811 70.9264 25.4517L72.1728 20.8061C72.3489 20.1515 72.286 19.5724 71.9839 19.0687C71.7069 18.5652 71.2663 18.2253 70.662 18.049ZM80.8217 22.6191C80.2678 22.3168 79.6887 22.2412 79.0843 22.3924C78.5053 22.5435 78.052 22.8834 77.7248 23.4122L70.7375 35.6113C70.385 36.1653 70.2969 36.7444 70.4732 37.3487C70.6495 37.9278 71.0019 38.3684 71.5307 38.6707C72.0595 38.9979 72.6259 39.0861 73.2303 38.935C73.8345 38.7587 74.2877 38.3937 74.59 37.8398L81.6149 25.6783C81.917 25.1243 81.9926 24.5577 81.8416 23.9786C81.6904 23.3996 81.3505 22.9463 80.8217 22.6191ZM89.9239 29.1529C89.4708 28.6997 88.9294 28.4858 88.3 28.5109C87.6956 28.5109 87.1795 28.725 86.7514 29.1529L83.3145 32.5522C82.8613 33.0305 82.6221 33.5718 82.5969 34.1762C82.5969 34.7553 82.8361 35.2714 83.3145 35.7247C83.7677 36.2031 84.2964 36.4423 84.9008 36.4423C85.505 36.4423 86.0213 36.2157 86.4492 35.7625L89.8107 32.3632C90.2891 31.8597 90.5409 31.3184 90.5661 30.7392C90.5912 30.135 90.3771 29.6062 89.9239 29.1529ZM96.4201 38.2174C96.0929 37.6635 95.627 37.311 95.0228 37.1598C94.4437 37.0088 93.8771 37.0844 93.3231 37.3865L81.1616 44.4114C80.6077 44.7136 80.2427 45.1669 80.0664 45.7711C79.9153 46.3755 80.0035 46.9546 80.3307 47.5085C80.633 48.0372 81.0736 48.3897 81.6527 48.566C82.257 48.7171 82.8361 48.6289 83.3901 48.3016L95.5892 41.2766C96.118 40.9494 96.4579 40.4961 96.609 39.9171C96.7853 39.3378 96.7224 38.7714 96.4201 38.2174ZM101.028 48.415C100.877 47.7855 100.524 47.3196 99.9705 47.0175C99.4165 46.7154 98.8626 46.6398 98.3086 46.7909L93.5875 48.075C92.9832 48.2512 92.53 48.6038 92.2279 49.1326C91.9258 49.6612 91.8753 50.2782 92.0768 50.9832C92.2279 51.4615 92.5426 51.8645 93.021 52.1918C93.5245 52.5192 94.1163 52.5946 94.7961 52.4185L99.3661 51.1343C100.021 50.958 100.499 50.6055 100.801 50.0767C101.104 49.548 101.179 48.9941 101.028 48.415ZM102.085 59.4811C102.085 58.8516 101.859 58.3229 101.406 57.8948C100.978 57.4667 100.449 57.2528 99.8193 57.2528H85.8072C85.1526 57.2528 84.6111 57.4667 84.1832 57.8948C83.7551 58.3229 83.541 58.8516 83.541 59.4811C83.541 60.1106 83.7551 60.6519 84.1832 61.1052C84.6111 61.5333 85.1526 61.7472 85.8072 61.7472H99.8193C100.449 61.7472 100.978 61.5333 101.406 61.1052C101.859 60.6519 102.085 60.1106 102.085 59.4811ZM101.028 70.7361C101.204 70.1066 101.154 69.5275 100.877 68.9987C100.6 68.4701 100.134 68.1049 99.4794 67.9035L94.7961 66.5815C94.1667 66.4306 93.5875 66.5061 93.0588 66.8082C92.53 67.1103 92.1901 67.5636 92.039 68.1678C91.888 68.7973 91.9509 69.389 92.2279 69.943C92.53 70.4969 92.9832 70.8495 93.5875 71.0004L98.2331 72.209C98.8877 72.3602 99.4668 72.2973 99.9705 72.0203C100.499 71.7182 100.852 71.2901 101.028 70.7361ZM96.3823 80.7825C96.6846 80.2537 96.7601 79.6873 96.609 79.0829C96.4579 78.4787 96.118 78.0255 95.5892 77.7234L83.3901 70.6983C82.8361 70.3711 82.257 70.2955 81.6527 70.4718C81.0736 70.6228 80.633 70.9628 80.3307 71.4915C80.0035 72.0454 79.9153 72.6245 80.0664 73.2289C80.2427 73.808 80.6077 74.2612 81.1616 74.5886L93.3231 81.6135C93.8771 81.9156 94.4437 81.9911 95.0228 81.8402C95.6018 81.6639 96.0551 81.3114 96.3823 80.7825ZM89.8863 89.9225C90.3646 89.4441 90.5912 88.8902 90.5661 88.2608C90.5661 87.6313 90.3646 87.1151 89.9617 86.7122L86.487 83.3131C86.0338 82.885 85.4925 82.6584 84.863 82.6333C84.2588 82.608 83.7173 82.8347 83.2389 83.3131C82.8108 83.7915 82.5969 84.3203 82.5969 84.8994C82.6221 85.4784 82.8613 85.9946 83.3145 86.4478L86.7136 89.8471C87.1921 90.3255 87.7208 90.5646 88.3 90.5646C88.9042 90.5898 89.433 90.3757 89.8863 89.9225ZM80.784 96.3809C81.3379 96.0788 81.6904 95.6256 81.8416 95.0213C81.9926 94.417 81.917 93.8505 81.6149 93.3217L74.59 81.1602C74.2877 80.5811 73.8345 80.2161 73.2303 80.065C72.6259 79.9138 72.0595 79.9894 71.5307 80.2915C71.0019 80.6189 70.6495 81.0847 70.4732 81.689C70.2969 82.2681 70.385 82.8347 70.7375 83.3887L77.7248 95.5501C78.052 96.1039 78.5053 96.4565 79.0843 96.6076C79.6636 96.7587 80.23 96.6832 80.784 96.3809ZM70.662 101.064C71.367 100.888 71.8328 100.523 72.0595 99.9691C72.3113 99.4403 72.3616 98.8863 72.2105 98.3072L71.0019 93.5483C70.8509 92.944 70.4857 92.4908 69.9066 92.1887C69.3527 91.8866 68.7736 91.8235 68.1692 91.9998C67.5146 92.1761 67.0488 92.5286 66.7719 93.0574C66.4949 93.6113 66.4445 94.1778 66.6207 94.7569L67.9804 99.3647C68.1567 99.9942 68.4715 100.46 68.9247 100.762C69.4031 101.089 69.9822 101.19 70.662 101.064ZM59.4825 102.084C60.1372 102.084 60.6785 101.857 61.1066 101.404C61.5347 100.976 61.7486 100.447 61.7486 99.8179V85.8058C61.7486 85.1512 61.5347 84.6097 61.1066 84.1818C60.6785 83.7537 60.1372 83.5396 59.4825 83.5396C58.8783 83.5396 58.3495 83.7537 57.8962 84.1818C57.4681 84.6097 57.2542 85.1512 57.2542 85.8058V99.8179C57.2542 100.447 57.4681 100.976 57.8962 101.404C58.3495 101.857 58.8783 102.084 59.4825 102.084ZM48.1519 101.027C48.857 101.253 49.4865 101.19 50.0403 100.838C50.5943 100.51 50.9468 100.057 51.0979 99.478L52.3821 94.8324C52.5583 94.2282 52.4953 93.6491 52.1932 93.0952C51.8911 92.5664 51.4378 92.2265 50.8336 92.0753C50.2292 91.9244 49.6501 91.9873 49.0962 92.2643C48.5674 92.5664 48.2275 93.0321 48.0764 93.6616L46.83 98.3072C46.6539 98.9619 46.6664 99.5283 46.8678 100.007C47.0945 100.485 47.5224 100.825 48.1519 101.027ZM38.2188 96.3809C38.7477 96.6832 39.3141 96.7587 39.9185 96.6076C40.5227 96.4565 40.9759 96.1039 41.278 95.5501L48.3031 83.3887C48.6303 82.8347 48.7059 82.2681 48.5296 81.689C48.3786 81.0847 48.0386 80.6189 47.5099 80.2915C46.956 79.9894 46.3769 79.9138 45.7725 80.065C45.1934 80.2161 44.7402 80.5811 44.4128 81.1602L37.4257 93.3217C37.0983 93.8505 37.0103 94.4045 37.1612 94.9836C37.3375 95.5878 37.69 96.0537 38.2188 96.3809ZM29.1165 89.8849C29.5951 90.338 30.1237 90.5646 30.7028 90.5646C31.3072 90.5898 31.8233 90.3884 32.2514 89.9603L35.6883 86.5612C36.1416 86.0575 36.3807 85.5162 36.4059 84.9371C36.4312 84.3581 36.2045 83.8419 35.7261 83.3887C35.298 82.9354 34.7693 82.7087 34.1398 82.7087C33.5103 82.6836 32.9815 82.8976 32.5536 83.3509L29.1921 86.75C28.7137 87.2536 28.4619 87.7823 28.4368 88.3362C28.4368 88.9155 28.6634 89.4316 29.1165 89.8849ZM22.6205 80.7825C22.9226 81.3114 23.3758 81.6639 23.9801 81.8402C24.5844 81.9911 25.1509 81.9156 25.6797 81.6135L37.8412 74.5886C38.4203 74.2612 38.7853 73.808 38.9364 73.2289C39.0876 72.6245 39.012 72.0581 38.7099 71.5293C38.3825 70.9753 37.9167 70.6228 37.3124 70.4718C36.7333 70.2955 36.1667 70.3711 35.6127 70.6983L23.4512 77.7234C22.8975 78.0255 22.5449 78.4787 22.3938 79.0829C22.2427 79.6622 22.3182 80.2286 22.6205 80.7825ZM17.9749 70.6228C18.126 71.2271 18.4784 71.6804 19.0323 71.9825C19.5863 72.2595 20.1529 72.335 20.7319 72.209L25.4153 71.0382C26.0447 70.862 26.5106 70.5221 26.8127 70.0186C27.1148 69.4897 27.1779 68.9107 27.0016 68.2812C26.8253 67.6769 26.4728 67.2237 25.944 66.9216C25.4153 66.5942 24.8361 66.5061 24.2067 66.6571L19.6745 67.9035C18.9694 68.1049 18.4659 68.4701 18.1638 68.9987C17.8868 69.5024 17.8237 70.0437 17.9749 70.6228ZM16.9174 59.4811C16.9174 60.1106 17.1315 60.6519 17.5594 61.1052C18.0127 61.5333 18.554 61.7472 19.1835 61.7472H33.1956C33.8502 61.7472 34.3917 61.5333 34.8196 61.1052C35.2477 60.6519 35.4618 60.1106 35.4618 59.4811C35.4618 58.8516 35.2477 58.3229 34.8196 57.8948C34.3917 57.4667 33.8502 57.2528 33.1956 57.2528H19.1835C18.554 57.2528 18.0127 57.4667 17.5594 57.8948C17.1315 58.3229 16.9174 58.8516 16.9174 59.4811ZM17.9371 48.3772C17.8112 48.9814 17.9119 49.548 18.2392 50.0767C18.5666 50.6055 19.0072 50.958 19.5611 51.1343L24.2067 52.4561C24.8361 52.6072 25.4153 52.5317 25.944 52.2295C26.4979 51.9274 26.8378 51.4615 26.9638 50.8322C27.1148 50.2278 27.0519 49.6487 26.7749 49.0948C26.4979 48.5408 26.0447 48.1883 25.4153 48.0372L20.7697 46.8664C20.0899 46.6901 19.4731 46.7532 18.9191 47.0553C18.3903 47.3574 18.0631 47.798 17.9371 48.3772ZM22.6581 38.1797C22.3309 38.7336 22.2427 39.3127 22.3938 39.9171C22.5449 40.4961 22.8975 40.9494 23.4512 41.2766L35.6127 48.3016C36.1667 48.6289 36.7333 48.7171 37.3124 48.566C37.9167 48.3897 38.3825 48.0372 38.7099 47.5085C39.012 46.9546 39.0876 46.3755 38.9364 45.7711C38.7853 45.1669 38.4203 44.7136 37.8412 44.4114L25.6797 37.3865C25.1509 37.0844 24.5844 37.0088 23.9801 37.1598C23.401 37.311 22.9604 37.6509 22.6581 38.1797ZM29.0789 29.1151C28.6257 29.5432 28.4116 30.072 28.4368 30.7014C28.4872 31.3309 28.7137 31.8597 29.1165 32.2878L32.478 35.6869C32.9564 36.1653 33.4852 36.4171 34.0643 36.4423C34.6686 36.4423 35.2099 36.2031 35.6883 35.7247C36.1164 35.2966 36.3305 34.7804 36.3305 34.1762C36.3556 33.5467 36.1289 32.9927 35.6505 32.5144L32.2892 29.1529C31.8107 28.6494 31.2694 28.4102 30.6652 28.4353C30.0859 28.4353 29.5573 28.662 29.0789 29.1151ZM38.2188 22.5813C37.69 22.9085 37.3375 23.3744 37.1612 23.9786C37.0103 24.5577 37.0983 25.1243 37.4257 25.6783L44.4128 37.8398C44.7402 38.3937 45.1934 38.7587 45.7725 38.935C46.3769 39.0861 46.9433 38.9979 47.4721 38.6707C48.0261 38.3684 48.3786 37.9278 48.5296 37.3487C48.7059 36.7444 48.6303 36.1653 48.3031 35.6113L41.278 23.4122C40.9508 22.8834 40.4976 22.5435 39.9185 22.3924C39.3392 22.2161 38.7728 22.279 38.2188 22.5813ZM48.3408 17.9357C47.7113 18.0617 47.2454 18.3889 46.9433 18.9177C46.6664 19.4212 46.6161 20.0256 46.7924 20.7305L48.0386 25.4894C48.1897 26.0686 48.5296 26.4965 49.0584 26.7735C49.6124 27.0505 50.2419 27.0883 50.9468 26.8869C51.6267 26.6854 52.0798 26.3456 52.3065 25.867C52.5583 25.3635 52.596 24.8096 52.4199 24.2053L51.0979 19.6353C50.9217 18.9555 50.5691 18.477 50.0403 18.2002C49.5368 17.8979 48.9702 17.8098 48.3408 17.9357Z" fill="black"/>
</g>
<defs>
<clipPath id="clip0_0_241">
<rect width="118.639" height="118.639" fill="white" transform="scale(1.00304)"/>
</clipPath>
</defs>
</svg>
