<svg width="119" height="119" viewBox="0 0 119 119" fill="none" xmlns="http://www.w3.org/2000/svg">
<g clip-path="url(#clip0_0_305)">
<path d="M10.2672 59.5001C10.2672 64.0575 11.1485 68.0231 12.911 71.3971C14.6987 74.7712 17.1788 77.3898 20.3514 79.253C23.5492 81.0911 27.2379 82.0101 31.4176 82.0101C34.842 82.0101 38.0397 81.2799 41.0108 79.8196C43.982 78.334 47.0287 76.093 50.1508 73.0967L59.5174 64.1079L68.8463 73.0967C71.9684 76.093 75.0151 78.334 77.9862 79.8196C80.9825 81.2799 84.1803 82.0101 87.5794 82.0101C91.7591 82.0101 95.4354 81.0911 98.6079 79.253C101.806 77.3898 104.286 74.7712 106.048 71.3971C107.836 68.0231 108.73 64.0575 108.73 59.5001C108.73 54.9427 107.836 50.977 106.048 47.603C104.286 44.2289 101.806 41.623 98.6079 39.7849C95.4354 37.9216 91.7591 36.99 87.5794 36.99C84.1803 36.99 80.9825 37.7327 77.9862 39.2183C75.0151 40.6787 71.9684 42.9071 68.8463 45.9034L59.5174 54.8922L50.1508 45.9034C47.0287 42.9071 43.982 40.6787 41.0108 39.2183C38.0397 37.7327 34.842 36.99 31.4176 36.99C27.2379 36.99 23.5492 37.9216 20.3514 39.7849C17.1788 41.623 14.6987 44.2289 12.911 47.603C11.1485 50.977 10.2672 54.9427 10.2672 59.5001ZM17.1033 59.5001C17.1033 56.3024 17.7076 53.5327 18.9162 51.191C20.1248 48.8493 21.7992 47.0364 23.9394 45.7523C26.1049 44.4681 28.5975 43.8261 31.4176 43.8261C33.8348 43.8261 36.1513 44.4179 38.3669 45.6012C40.5827 46.7595 42.9119 48.4716 45.3542 50.7378L54.7208 59.5001L45.3164 68.2623C42.8992 70.5285 40.5827 72.2533 38.3669 73.4366C36.1513 74.5949 33.8348 75.174 31.4176 75.174C28.5975 75.174 26.1049 74.532 23.9394 73.2478C21.7992 71.9637 20.1248 70.1509 18.9162 67.8091C17.7076 65.4423 17.1033 62.6726 17.1033 59.5001ZM64.2762 59.5001L73.6429 50.7378C76.0852 48.4716 78.4143 46.7595 80.6301 45.6012C82.8457 44.4179 85.1622 43.8261 87.5794 43.8261C90.3996 43.8261 92.8797 44.4681 95.0199 45.7523C97.1853 47.0364 98.8722 48.8493 100.081 51.191C101.289 53.5327 101.894 56.3024 101.894 59.5001C101.894 62.6726 101.289 65.4423 100.081 67.8091C98.8722 70.1509 97.1853 71.9637 95.0199 73.2478C92.8797 74.532 90.3996 75.174 87.5794 75.174C85.1622 75.174 82.8457 74.5949 80.6301 73.4366C78.4143 72.2533 76.0978 70.5285 73.6807 68.2623L64.2762 59.5001Z" fill="black"/>
</g>
<defs>
<clipPath id="clip0_0_305">
<rect width="118.639" height="118.639" fill="white" transform="scale(1.00304)"/>
</clipPath>
</defs>
</svg>
