<svg width="119" height="119" viewBox="0 0 119 119" fill="none" xmlns="http://www.w3.org/2000/svg">
<g clip-path="url(#clip0_0_258)">
<path d="M59.5001 96.3245C64.5359 96.3245 69.2696 95.3551 73.7012 93.4163C78.1579 91.5026 82.0731 88.8589 85.4472 85.4849C88.8463 82.0857 91.5153 78.1703 93.4541 73.7389C95.3929 69.2822 96.3622 64.5358 96.3622 59.5001C96.3622 54.4643 95.3929 49.7306 93.4541 45.299C91.5153 40.8423 88.8463 36.9271 85.4472 33.553C82.0731 30.1539 78.1579 27.4975 73.7012 25.5839C69.2445 23.645 64.4981 22.6756 59.4624 22.6756C54.4266 22.6756 49.6929 23.6326 45.2613 25.5461C40.8299 27.4597 36.9145 30.1161 33.5153 33.5152C30.1413 36.9144 27.485 40.8423 25.5461 45.299C23.6326 49.7306 22.6757 54.4643 22.6757 59.5001C22.6757 64.5358 23.6326 69.2822 25.5461 73.7389C27.485 78.1703 30.1413 82.0857 33.5153 85.4849C36.9145 88.8589 40.8299 91.5026 45.2613 93.4163C49.718 95.3551 54.4644 96.3245 59.5001 96.3245ZM59.5001 89.9038C55.2953 89.9038 51.3547 89.1232 47.6785 87.5621C44.0025 86.0011 40.7668 83.8356 37.972 81.0658C35.2024 78.271 33.0369 75.0355 31.4759 71.3595C29.9148 67.6832 29.1341 63.7302 29.1341 59.5001C29.1341 55.2699 29.9148 51.3169 31.4759 47.6407C33.0369 43.9646 35.2024 40.7416 37.972 37.9719C40.7417 35.177 43.9647 32.999 47.6407 31.4381C51.317 29.8518 55.2575 29.0587 59.4624 29.0587C63.6925 29.0587 67.6455 29.8518 71.3217 31.4381C74.9978 32.999 78.2208 35.177 80.9905 37.9719C83.7854 40.7416 85.9634 43.9646 87.5244 47.6407C89.1106 51.3169 89.9164 55.2699 89.9415 59.5001C89.9415 63.7049 89.161 67.6455 87.5999 71.3217C86.0388 74.9977 83.8609 78.2333 81.0659 81.0282C78.2711 83.8231 75.0356 86.0011 71.3595 87.5621C67.6833 89.1232 63.7303 89.9038 59.5001 89.9038ZM5.60438 59.5001C5.60438 65.4675 6.52342 71.1579 8.36148 76.5715C10.1996 81.985 12.7678 86.9327 16.0663 91.4145C16.6454 92.2202 17.3756 92.6609 18.2568 92.7365C19.1633 92.8372 19.9942 92.5853 20.7496 91.981C21.4293 91.4019 21.8072 90.697 21.8826 89.866C21.9833 89.0351 21.7567 88.242 21.2028 87.4866C18.3324 83.5839 16.0914 79.253 14.48 74.4942C12.8685 69.7354 12.0628 64.7373 12.0628 59.5001C12.0628 54.2376 12.8685 49.2396 14.48 44.5059C16.0914 39.7471 18.3324 35.3911 21.2028 31.4381C21.7567 30.7079 21.9959 29.9272 21.9204 29.0963C21.8448 28.2655 21.4546 27.5604 20.7496 26.9814C19.9942 26.377 19.1633 26.1253 18.2568 26.226C17.3756 26.3267 16.6454 26.7673 16.0663 27.5478C12.7678 32.0298 10.1996 36.9774 8.36148 42.3908C6.52342 47.8044 5.60438 53.5075 5.60438 59.5001ZM113.396 59.5001C113.396 53.5075 112.477 47.8044 110.639 42.3908C108.801 36.9774 106.233 32.0298 102.934 27.5478C102.355 26.7673 101.612 26.3267 100.706 26.226C99.8243 26.1253 99.0061 26.377 98.2507 26.9814C97.5456 27.5604 97.1555 28.2655 97.0799 29.0963C97.0295 29.9272 97.2687 30.7079 97.7975 31.4381C100.693 35.3911 102.934 39.7471 104.52 44.5059C106.132 49.2396 106.937 54.2376 106.937 59.5001C106.937 64.7373 106.132 69.7354 104.52 74.4942C102.934 79.253 100.693 83.5839 97.7975 87.4866C97.2687 88.242 97.0421 89.0351 97.1177 89.866C97.1931 90.697 97.5709 91.4019 98.2507 91.981C99.0061 92.5853 99.8243 92.8372 100.706 92.7365C101.612 92.6609 102.355 92.2202 102.934 91.4145C106.233 86.9327 108.801 81.985 110.639 76.5715C112.477 71.1579 113.396 65.4675 113.396 59.5001ZM43.7128 61.9173C43.7128 62.3705 43.8765 62.7482 44.2039 63.0503C44.5311 63.3273 44.9214 63.4657 45.3747 63.4657H57.5362L51.04 80.9527C50.763 81.708 50.7756 82.3249 51.0778 82.8032C51.405 83.2816 51.8709 83.5335 52.4751 83.5586C53.0795 83.5839 53.6334 83.2943 54.137 82.6899L73.8521 57.9516C74.2551 57.4732 74.4565 57.0073 74.4565 56.5541C74.4565 56.0757 74.2929 55.698 73.9655 55.421C73.6382 55.1189 73.2479 54.9678 72.7947 54.9678H60.5954L67.1294 37.481C67.4064 36.7004 67.3812 36.0709 67.0538 35.5925C66.7266 35.1141 66.2607 34.8749 65.6564 34.8749C65.0772 34.8498 64.5359 35.1519 64.0324 35.7814L44.3172 60.5197C43.9143 60.973 43.7128 61.4389 43.7128 61.9173Z" fill="black"/>
</g>
<defs>
<clipPath id="clip0_0_258">
<rect width="118.639" height="118.639" fill="white" transform="scale(1.00304)"/>
</clipPath>
</defs>
</svg>
