<svg width="16" height="18" viewBox="0 0 16 18" fill="none" xmlns="http://www.w3.org/2000/svg">
<path d="M15.806 4.50696C14.7771 4.50696 13.8278 4.16612 13.0655 3.59112C12.1913 2.93199 11.5631 1.96511 11.3412 0.850696C11.2863 0.575341 11.2568 0.291195 11.2539 0H8.31496V8.03086L8.31137 12.4298C8.31137 13.6058 7.54561 14.603 6.48391 14.9537C6.17581 15.0554 5.84311 15.1037 5.49661 15.0846C5.05441 15.0603 4.63996 14.9268 4.27977 14.7114C3.51322 14.2529 2.99351 13.4213 2.97943 12.4698C2.95724 10.9829 4.15935 9.77056 5.64526 9.77056C5.93851 9.77056 6.22021 9.81841 6.48391 9.90541V7.71046V6.92131C6.20581 6.88021 5.92276 6.85861 5.63641 6.85861C4.01005 6.85861 2.48894 7.53466 1.40165 8.75266C0.579831 9.67306 0.0868848 10.8473 0.0108197 12.0786C-0.0888255 13.6962 0.503076 15.2339 1.65094 16.3683C1.8196 16.535 1.9967 16.6895 2.18191 16.8321C3.16604 17.5895 4.36919 18 5.63641 18C5.92276 18 6.20581 17.9789 6.48391 17.9378C7.66771 17.7624 8.76002 17.2205 9.62192 16.3683C10.6811 15.3216 11.2662 13.9317 11.2725 12.4526L11.2575 5.8837C11.7627 6.27346 12.3152 6.59596 12.9081 6.84631C13.8303 7.23541 14.808 7.43266 15.8144 7.43221V5.29814V4.50626L15.806 4.50696Z" fill="#151515"/>
</svg>
