<svg width="119" height="119" viewBox="0 0 119 119" fill="none" xmlns="http://www.w3.org/2000/svg">
<g clip-path="url(#clip0_0_266)">
<path d="M44.8078 49.4913H51.1908C52.3239 49.4913 53.0288 48.9625 53.3058 47.905L56.5539 34.7992H53.268L58.0269 57.8759C58.1528 58.581 58.4802 59.0593 59.0088 59.311C59.5628 59.5377 60.1167 59.5377 60.6707 59.311C61.2246 59.0845 61.6149 58.6312 61.8415 57.9514L67.2047 39.4071L64.1453 39.3315L66.1472 47.7917C66.3989 48.9247 67.104 49.4913 68.2621 49.4913H74.1919C74.7457 49.4913 75.2116 49.3024 75.5893 48.9247C75.9669 48.547 76.1559 48.0938 76.1559 47.5651C76.1559 47.0112 75.9669 46.5453 75.5893 46.1676C75.2116 45.7899 74.7457 45.601 74.1919 45.601H68.6398L69.6219 46.3565L67.469 38.0096C67.2927 37.3549 66.9403 36.927 66.4115 36.7256C65.8827 36.4989 65.3539 36.5115 64.8253 36.7632C64.2965 36.9899 63.9188 37.4305 63.6922 38.0851L58.2157 55.9875H61.3882L56.705 32.9109C56.5539 32.2311 56.214 31.7778 55.6852 31.5511C55.1565 31.2995 54.6151 31.2868 54.0613 31.5134C53.5073 31.7401 53.1548 32.1933 53.0036 32.8731L49.6046 46.772L50.7376 45.601H44.8078C44.254 45.601 43.7881 45.8026 43.4105 46.2054C43.0328 46.5831 42.8439 47.0363 42.8439 47.5651C42.8439 48.0938 43.0328 48.547 43.4105 48.9247C43.7881 49.3024 44.254 49.4913 44.8078 49.4913ZM45.1856 69.5842H73.8519C74.5065 69.5842 75.048 69.3576 75.4759 68.9044C75.9292 68.4511 76.1559 67.8972 76.1559 67.2425C76.1559 66.5879 75.9292 66.0464 75.4759 65.6185C75.048 65.1652 74.5065 64.9385 73.8519 64.9385H45.1856C44.5057 64.9385 43.9393 65.1652 43.486 65.6185C43.0579 66.0464 42.8439 66.5879 42.8439 67.2425C42.8439 67.8972 43.0579 68.4511 43.486 68.9044C43.9393 69.3576 44.5057 69.5842 45.1856 69.5842ZM45.1856 82.7653H58.7445C59.4243 82.7653 59.9782 82.5513 60.4063 82.1233C60.8596 81.6701 61.0861 81.1162 61.0861 80.4615C61.0861 79.8069 60.8596 79.2529 60.4063 78.7997C59.9782 78.3464 59.4243 78.1199 58.7445 78.1199H45.1856C44.5057 78.1199 43.9393 78.3464 43.486 78.7997C43.0579 79.2529 42.8439 79.8069 42.8439 80.4615C42.8439 81.1162 43.0579 81.6701 43.486 82.1233C43.9393 82.5513 44.5057 82.7653 45.1856 82.7653ZM27.7365 88.1663C27.7365 92.1193 28.7059 95.078 30.6447 97.0419C32.6087 99.0059 35.542 99.9879 39.4448 99.9879H79.5549C83.4577 99.9879 86.3786 99.0059 88.3172 97.0419C90.2813 95.078 91.2632 92.1193 91.2632 88.1663V30.8714C91.2632 26.9435 90.2813 23.9848 88.3172 21.9957C86.3786 20.0066 83.4577 19.012 79.5549 19.012H39.4448C35.542 19.012 32.6087 20.0066 30.6447 21.9957C28.7059 23.9848 27.7365 26.9435 27.7365 30.8714V88.1663ZM33.8173 88.053V30.9847C33.8173 29.0962 34.3083 27.6484 35.2902 26.6413C36.2974 25.6089 37.7829 25.0927 39.7469 25.0927H79.2528C81.2168 25.0927 82.6897 25.6089 83.6717 26.6413C84.6789 27.6484 85.1824 29.0962 85.1824 30.9847V88.053C85.1824 89.9413 84.6789 91.3893 83.6717 92.3963C82.6897 93.4035 81.2168 93.9072 79.2528 93.9072H39.7469C37.7829 93.9072 36.2974 93.4035 35.2902 92.3963C34.3083 91.3893 33.8173 89.9413 33.8173 88.053Z" fill="black"/>
</g>
<defs>
<clipPath id="clip0_0_266">
<rect width="118.639" height="118.639" fill="white" transform="scale(1.00304)"/>
</clipPath>
</defs>
</svg>
